<svg viewBox="0 0 512 512" xmlns="http://www.w3.org/2000/svg"><path d="m512 256c0 141.386719-114.613281 256-256 256s-256-114.613281-256-256 114.613281-256 256-256 256 114.613281 256 256zm0 0" fill="#54469b"/><path d="m506.273438 310c-24.789063 115.449219-127.417969 202-250.273438 202s-225.484375-86.550781-250.273438-202zm0 0" fill="#463b83"/><path d="m452.875 111.789062c-26.035156 55.140626-131.546875 111.929688-180.054688 173.070313v126.925781c0 4.066406 2.5625 7.6875 6.394532 9.042969l70.441406 22.699219c4.417969 0 8.003906 3.582031 8.003906 8.003906 0 4.417969-3.585937 8.003906-8.003906 8.003906h-93.652344-.007812-93.652344c-4.417969 0-8.003906-3.585937-8.003906-8.003906 0-4.421875 3.585937-8.003906 8.003906-8.003906l70.445312-22.699219c3.828126-1.355469 6.390626-4.976563 6.390626-9.042969v-126.925781c-48.507813-61.140625-154.019532-117.929687-180.054688-173.070313-1.441406-3.050781.820312-6.5625 4.195312-6.5625h385.359376c3.375 0 5.636718 3.511719 4.195312 6.5625zm0 0" fill="#968dca"/><path d="m452.875 111.792969c-23.527344 49.820312-111.945312 100.988281-164.5625 155.496093-6.625 6.863282-17.644531 6.863282-24.269531 0-3.011719-3.117187-6.136719-6.226562-9.363281-9.324218-20.582032-19.757813-37.324219-44.328125-61.015626-63.328125-27.539062-22.085938-61.71875-38.480469-79.144531-59.820313-6.296875-7.710937-11.429687-15.382812-15.039062-23.023437-1.445313-3.054688.816406-6.566407 4.195312-6.566407h345.003907c3.375 0 5.636718 3.511719 4.195312 6.566407zm-173.660156 309.035156c-3.832032-1.355469-6.394532-4.976563-6.394532-9.042969v-126.925781c.09375-.121094.195313-.242187.289063-.359375h-3.277344c-9.113281 0-16.5 7.386719-16.5 16.5v124.980469h-.1875c-.253906 3.796875-2.738281 7.113281-6.363281 8.394531 0 0-5.960938 1.882812-14.542969 4.621094-3.726562 1.191406-2.878906 6.691406 1.03125 6.691406h121.84375c-1.429687-1.335938-3.347656-2.160156-5.457031-2.160156zm0 0" fill="#c1bbdf"/><path d="m115.191406 57.257812 123.609375 123.605469-14.953125 14.949219-123.605468-123.605469c-7.222657 2-15.28125.175781-20.960938-5.503906-8.394531-8.394531-8.394531-22.007813 0-30.40625 8.398438-8.398437 22.011719-8.398437 30.410156 0 5.675782 5.679687 7.5 13.738281 5.5 20.960937zm0 0" fill="#fd3980"/><path d="m394.828125 134.816406c-10.785156 13.203125-24.980469 26.523438-40.761719 39.992188-7.164062 6.117187-16.269531 9.503906-25.691406 9.503906h-147.398438c-9.421874 0-18.527343-3.386719-25.691406-9.503906-15.78125-13.46875-29.976562-26.789063-40.761718-39.992188-1.144532-1.40625-.136719-3.507812 1.675781-3.507812h276.953125c1.8125 0 2.820312 2.101562 1.675781 3.507812zm0 0" fill="#fdf061"/><path d="m159.34375 131.308594h29.898438l49.558593 49.554687-14.953125 14.949219zm0 0" fill="#fdb44c"/><path d="m354.644531 174.3125c-31.769531 27.175781-70.082031 54.960938-99.96875 83.65625-29.886719-28.695312-68.199219-56.480469-99.964843-83.65625zm0 0" fill="#fc5e93"/><path d="m301.796875 217.316406c-16.542969 13.363282-32.800781 26.902344-47.121094 40.652344-14.320312-13.75-30.578125-27.289062-47.121093-40.652344zm0 0" fill="#fd0464"/><path d="m364.921875 341.777344c43.660156-2.34375 80.953125 31.148437 83.300781 74.808594 2.34375 43.660156-31.148437 80.953124-74.808594 83.296874-43.660156 2.347657-80.953124-31.144531-83.296874-74.804687-2.347657-43.660156 31.144531-80.953125 74.804687-83.300781zm0 0" fill="#fd9d01"/><path d="m382.894531 498.78125c-3.097656.542969-6.257812.929688-9.480469 1.101562-43.660156 2.347657-80.953124-31.144531-83.300781-74.804687-2.34375-43.660156 31.148438-80.953125 74.808594-83.300781 6.164063-.328125 12.191406.078125 18.019531 1.101562-38.917968 6.804688-67.496094 41.761719-65.324218 82.199219 2.015624 37.496094 29.816406 67.46875 65.277343 73.703125zm0 0" fill="#f57e00"/><path d="m369.167969 361.664062c-32.675781 0-59.164063 26.492188-59.164063 59.167969s26.488282 59.167969 59.164063 59.167969c32.679687 0 59.167969-26.492188 59.167969-59.167969 0-32.679687-26.488282-59.167969-59.167969-59.167969zm24.273437 28.214844c2.34375-4.828125 8.875-5.839844 12.449219-1.839844.050781.054688.097656.109376.144531.164063 3.570313 4.03125 1.820313 10.417969-3.269531 12.179687l-17.339844 6.007813zm-21.453125-18.199218c.074219.003906.148438.011718.222657.015624 5.355468.332032 8.601562 6.089844 6.257812 10.917969l-8.015625 16.511719-6.007813-17.339844c-1.761718-5.085937 2.167969-10.414062 7.542969-10.105468zm-51.96875 46.332031c.003907-.074219.007813-.148438.011719-.21875.332031-5.359375 6.089844-8.605469 10.917969-6.261719l16.511719 8.015625-17.339844 6.007813c-5.085938 1.761718-10.414063-2.167969-10.101563-7.542969zm24.878907 33.773437c-2.34375 4.828125-8.875 5.835938-12.453126 1.835938-.046874-.054688-.097656-.109375-.144531-.164063-3.570312-4.03125-1.816406-10.417969 3.269531-12.179687l17.339844-6.007813zm-6.683594-55.226562c-4.828125-2.34375-5.835938-8.871094-1.835938-12.449219.054688-.050781.109375-.097656.164063-.144531 4.03125-3.570313 10.417969-1.820313 12.179687 3.269531l6.007813 17.339844zm28.132812 73.421875c-.074218-.003907-.144531-.007813-.21875-.011719-5.355468-.335938-8.605468-6.089844-6.261718-10.917969l8.015624-16.515625 6.007813 17.34375c1.765625 5.085938-2.167969 10.414063-7.542969 10.101563zm3.59375-34.722657c-7.96875.429688-14.773437-5.683593-15.203125-13.652343-.425781-7.96875 5.683594-14.773438 13.652344-15.203125 7.96875-.425782 14.773437 5.6875 15.203125 13.652344.429688 7.96875-5.683594 14.777343-13.652344 15.203124zm32.019532 22.296876c-.054688.046874-.109376.09375-.164063.144531-4.03125 3.570312-10.417969 1.816406-12.179687-3.269531l-6.007813-17.339844 16.511719 8.011718c4.828125 2.34375 5.839844 8.875 1.839844 12.453126zm5.425781-27.421876-16.511719-8.015624 17.339844-6.007813c5.089844-1.765625 10.417968 2.167969 10.105468 7.542969-.003906.074218-.007812.144531-.011718.21875-.335938 5.355468-6.09375 8.601562-10.921875 6.261718zm0 0" fill="#fdd194"/><path d="m404.636719 84.46875 7.15625 13.085938c.148437.273437.378906.503906.652343.652343l13.085938 7.15625c1.140625.625 1.140625 2.265625 0 2.886719l-13.085938 7.15625c-.273437.152344-.503906.378906-.652343.65625l-7.15625 13.082031c-.625 1.140625-2.265625 1.140625-2.886719 0l-7.15625-13.082031c-.152344-.277344-.378906-.503906-.65625-.65625l-13.082031-7.15625c-1.140625-.621094-1.140625-2.261719 0-2.886719l13.082031-7.15625c.277344-.148437.503906-.378906.65625-.652343l7.15625-13.085938c.621094-1.140625 2.261719-1.140625 2.886719 0zm0 0" fill="#fdf7bd"/></svg>