<svg viewBox="0 0 512 512" xmlns="http://www.w3.org/2000/svg"><path d="m512 256c0 141.386719-114.613281 256-256 256s-256-114.613281-256-256 114.613281-256 256-256 256 114.613281 256 256zm0 0" fill="#463b83"/><path d="m460 196c0 80.632812-65.367188 146-146 146s-146-65.367188-146-146 65.367188-146 146-146 146 65.367188 146 146zm-280.429688 174.855469c-38.421874 0-69.570312 31.148437-69.570312 69.574219 0 10.996093 2.5625 21.390624 7.105469 30.636718 25.535156 16.527344 54.199219 28.617188 84.910156 35.210938 27.40625-9.339844 47.128906-35.28125 47.128906-65.847656 0-38.425782-31.148437-69.574219-69.574219-69.574219zm-120-140.855469c-29.175781 0-53.4375 20.984375-58.558593 48.679688 1.214843 13.820312 3.511719 27.328124 6.835937 40.429687 10.265625 17.9375 29.578125 30.035156 51.722656 30.035156 32.902344 0 59.574219-26.671875 59.574219-59.574219 0-32.898437-26.671875-59.570312-59.574219-59.570312zm0 0" fill="#54469b"/><path d="m312.578125 208.585938 16.558594 92.359374c1.003906 5.609376-.796875 11.355469-4.824219 15.382813-6.800781 6.800781-17.824219 6.800781-24.625 0-4.027344-4.027344-5.832031-9.773437-4.824219-15.382813l16.558594-92.359374c.113281-.648438 1.042969-.648438 1.15625 0zm-91.539063-82.136719c0 5.695312 2.785157 11.035156 7.464844 14.289062l77.015625 53.601563c.539063.375 1.195313-.28125.820313-.820313l-53.601563-77.015625c-3.253906-4.679687-8.59375-7.464844-14.289062-7.464844-9.617188 0-17.410157 7.792969-17.410157 17.410157zm-9.984374 90.6875 92.359374-16.558594c.648438-.113281.648438-1.042969 0-1.15625l-92.359374-16.558594c-5.609376-1.003906-11.355469.796875-15.382813 4.824219-6.800781 6.800781-6.800781 17.824219 0 24.625 4.027344 4.027344 9.773437 5.832031 15.382813 4.824219zm107.425781-22.796875 77.015625-53.601563c4.679687-3.253906 7.464844-8.59375 7.464844-14.289062 0-9.617188-7.792969-17.410157-17.410157-17.410157-5.695312 0-11.035156 2.785157-14.289062 7.464844l-53.601563 77.015625c-.375.539063.28125 1.195313.820313.820313zm5.832031-110.667969c-6.800781-6.800781-17.824219-6.800781-24.625 0-4.027344 4.027344-5.832031 9.773437-4.824219 15.382813l16.558594 92.359374c.113281.648438 1.042969.648438 1.15625 0l16.558594-92.359374c1.007812-5.609376-.796875-11.355469-4.824219-15.382813zm78.648438 189.878906c0-5.695312-2.785157-11.035156-7.464844-14.289062l-77.015625-53.601563c-.539063-.375-1.195313.28125-.820313.820313l53.601563 77.015625c3.253906 4.679687 8.59375 7.464844 14.289062 7.464844 9.617188 0 17.410157-7.792969 17.410157-17.410157zm25.367187-85.863281c-4.027344-4.027344-9.773437-5.832031-15.382813-4.824219l-92.359374 16.558594c-.648438.113281-.648438 1.042969 0 1.15625l92.359374 16.558594c5.609376 1.003906 11.355469-.796875 15.382813-4.828125 6.800781-6.796875 6.800781-17.820313 0-24.621094zm-122.808594 17.972656-77.015625 53.601563c-4.679687 3.253906-7.464844 8.59375-7.464844 14.289062 0 9.617188 7.792969 17.410157 17.410157 17.410157 5.695312 0 11.035156-2.785157 14.289062-7.464844l53.601563-77.015625c.375-.539063-.28125-1.195313-.820313-.820313zm152.910157-23.515625c-9.863282 0-17.859376 7.992188-17.859376 17.855469s7.996094 17.855469 17.859376 17.855469c9.859374 0 17.855468-7.992188 17.855468-17.855469s-7.996094-17.855469-17.855468-17.855469zm-30.261719-73.058593c6.972656-6.972657 6.972656-18.28125 0-25.253907-6.972657-6.972656-18.28125-6.972656-25.253907 0-6.972656 6.972657-6.972656 18.28125 0 25.253907 6.972657 6.972656 18.28125 6.972656 25.253907 0zm-25.253907 181.828124c-6.972656 6.972657-6.972656 18.28125 0 25.253907 6.972657 6.972656 18.28125 6.972656 25.253907 0 6.972656-6.972657 6.972656-18.28125 0-25.253907-6.972657-6.972656-18.28125-6.972656-25.253907 0zm-207.082031 0c-6.972656 6.972657-6.972656 18.28125 0 25.253907 6.972657 6.972656 18.28125 6.972656 25.253907 0 6.972656-6.972657 6.972656-18.28125 0-25.253907-6.972657-6.972656-18.28125-6.972656-25.253907 0zm-30.261719-108.769531c-9.859374 0-17.855468 7.992188-17.855468 17.855469s7.996094 17.855469 17.855468 17.855469c9.863282 0 17.859376-7.992188 17.859376-17.855469s-7.996094-17.855469-17.859376-17.855469zm55.515626-73.058593c6.972656-6.972657 6.972656-18.28125 0-25.253907-6.972657-6.972656-18.28125-6.972656-25.253907 0-6.972656 6.972657-6.972656 18.28125 0 25.253907 6.972657 6.972656 18.28125 6.972656 25.253907 0zm90.914062-37.65625c9.863281 0 17.855469-7.996094 17.855469-17.859376 0-9.859374-7.992188-17.855468-17.855469-17.855468s-17.855469 7.996094-17.855469 17.855468c0 9.863282 7.992188 17.859376 17.855469 17.859376zm0 257.140624c-9.863281 0-17.855469 7.996094-17.855469 17.859376 0 9.859374 7.992188 17.855468 17.855469 17.855468s17.855469-7.996094 17.855469-17.855468c0-9.863282-7.992188-17.859376-17.855469-17.859376zm0 0" fill="#fdb44c"/><path d="m299.695312 126.113281c-.71875-4.027343.574219-8.152343 3.464844-11.046875 4.882813-4.878906 12.796875-4.878906 17.679688 0 2.890625 2.894532 4.183594 7.019532 3.464844 11.046875l-11.890626 66.304688c-.082031.464843-.746093.464843-.828124 0zm12.71875 81.46875c-.082031-.464843-.746093-.464843-.828124 0l-11.890626 66.304688c-.71875 4.027343.574219 8.152343 3.464844 11.046875 4.882813 4.878906 12.796875 4.878906 17.679688 0 2.890625-2.894532 4.183594-7.019532 3.464844-11.046875zm-7.996093-7.996093-66.304688-11.890626c-4.027343-.71875-8.152343.574219-11.046875 3.464844-4.878906 4.882813-4.878906 12.796875 0 17.679688 2.894532 2.890625 7.019532 4.183594 11.046875 3.464844l66.304688-11.890626c.464843-.082031.464843-.746093 0-.828124zm92.515625-8.425782c-2.894532-2.890625-7.019532-4.183594-11.046875-3.464844l-66.304688 11.890626c-.464843.082031-.464843.746093 0 .828124l66.304688 11.890626c4.027343.71875 8.152343-.574219 11.046875-3.464844 4.878906-4.882813 4.878906-12.796875 0-17.679688zm-145.878906-34.707031 55.292968 38.480469c.386719.269531.855469-.199219.585938-.589844l-38.480469-55.289062c-2.335937-3.359376-6.167969-5.359376-10.257813-5.359376-6.902343 0-12.5 5.59375-12.5 12.496094 0 4.09375 2 7.925782 5.359376 10.261719zm121.890624 87.09375-55.292968-38.480469c-.386719-.269531-.855469.199219-.585938.589844l38.480469 55.289062c2.335937 3.359376 6.167969 5.359376 10.257813 5.359376 6.902343 0 12.5-5.59375 12.5-12.5 0-4.089844-2-7.921876-5.359376-10.257813zm-66.601562-38.480469-55.289062 38.480469c-3.359376 2.335937-5.359376 6.167969-5.359376 10.257813 0 6.90625 5.59375 12.5 12.496094 12.5 4.09375 0 7.921875-2 10.261719-5.359376l38.480469-55.289062c.269531-.386719-.203125-.859375-.589844-.589844zm11.3125-10.132812 55.289062-38.480469c3.359376-2.335937 5.359376-6.167969 5.359376-10.257813 0-6.90625-5.59375-12.5-12.496094-12.5-4.09375 0-7.921875 2-10.261719 5.359376l-38.480469 55.292968c-.269531.382813.203125.855469.589844.585938zm0 0" fill="#fdf385"/><path d="m301.285156 10.714844c0-5.917969 4.796875-10.714844 10.714844-10.714844s10.714844 4.796875 10.714844 10.714844c0 5.917968-4.796875 10.714844-10.714844 10.714844s-10.714844-4.796876-10.714844-10.714844zm10.714844 389.285156c5.917969 0 10.714844-4.796875 10.714844-10.714844 0-5.917968-4.796875-10.714844-10.714844-10.714844s-10.714844 4.796876-10.714844 10.714844c0 5.917969 4.796875 10.714844 10.714844 10.714844zm-189.285156-210.714844c-5.917969 0-10.714844 4.796875-10.714844 10.714844s4.796875 10.714844 10.714844 10.714844c5.917968 0 10.714844-4.796875 10.714844-10.714844s-4.796876-10.714844-10.714844-10.714844zm378.570312 0c-5.917968 0-10.714844 4.796875-10.714844 10.714844s4.796876 10.714844 10.714844 10.714844c5.917969 0 10.714844-4.796875 10.714844-10.714844s-4.796875-10.714844-10.714844-10.714844zm-330.707031-130.707031c-4.183594 4.183594-4.183594 10.96875 0 15.152344 4.183594 4.183593 10.96875 4.183593 15.152344 0 4.183593-4.183594 4.183593-10.96875 0-15.152344-4.183594-4.183594-10.96875-4.183594-15.152344 0zm267.691406 267.691406c-4.183593 4.183594-4.183593 10.96875 0 15.152344 4.183594 4.183594 10.96875 4.183594 15.152344 0s4.183594-10.96875 0-15.152344c-4.183594-4.183593-10.96875-4.183593-15.152344 0zm-267.691406 0c-4.183594 4.183594-4.183594 10.96875 0 15.152344s10.96875 4.183594 15.152344 0c4.183593-4.183594 4.183593-10.96875 0-15.152344-4.183594-4.183593-10.96875-4.183593-15.152344 0zm278.710937-248.40625c4.183594-4.183593 4.183594-10.96875 0-15.152343-4.183593-4.183594-10.96875-4.183594-15.152343 0-4.183594 4.183593-4.183594 10.96875 0 15.152343 4.183593 4.183594 10.96875 4.183594 15.152343 0zm-146.070312 344.929688c-2.875 2.875-4.160156 6.972656-3.445312 10.972656l11.8125 65.886719c.082031.460937.742187.460937.828124 0l11.808594-65.886719c.71875-4-.566406-8.097656-3.441406-10.972656-4.847656-4.847657-12.714844-4.847657-17.5625 0zm0 0" fill="#fdc273"/><path d="m45.804688 218.550781c-.714844-4 .570312-8.097656 3.441406-10.972656 4.851562-4.851563 12.714844-4.851563 17.566406 0 2.875 2.875 4.160156 6.972656 3.441406 10.972656l-11.808594 65.886719c-.085937.460938-.746093.460938-.828124 0zm7.65625 68.851563c-2.523438 2.523437-2.523438 6.613281 0 9.136718 2.523437 2.523438 6.613281 2.523438 9.136718 0 2.523438-2.523437 2.523438-6.613281 0-9.136718-2.523437-2.523438-6.613281-2.523438-9.136718 0zm-.464844-1.050782-38.238282-54.941406c-2.320312-3.335937-6.128906-5.324218-10.191406-5.324218-.984375 0-1.9375.125-2.855468.34375-.910157 7.921874-1.46875 15.953124-1.6406255 24.078124l52.3398435 36.429688c.386719.265625.855469-.203125.585938-.585938zm10.652344.585938 54.941406-38.238281c3.335937-2.320313 5.324218-6.128907 5.324218-10.195313 0-6.859375-5.558593-12.417968-12.421874-12.417968-4.0625 0-7.871094 1.988281-10.191407 5.324218l-38.238281 54.941406c-.265625.382813.203125.851563.585938.585938zm-11.238282 10.066406-42.542968 29.609375c2.164062 7.546875 4.664062 14.945313 7.484374 22.191407l35.644532-51.214844c.269531-.386719-.199219-.855469-.585938-.585938zm90.011719-13.816406c-2.875-2.875-6.972656-4.160156-10.972656-3.441406l-65.886719 11.808594c-.460938.085937-.460938.746093 0 .828124l65.886719 11.8125c4 .714844 8.097656-.570312 10.972656-3.445312 4.851563-4.847656 4.851563-12.710938 0-17.5625zm-23.832031 52.054688-54.941406-38.238282c-.382813-.269531-.851563.199219-.585938.585938l38.238281 54.9375c2.320313 3.335937 6.128907 5.328125 10.195313 5.328125 6.859375 0 12.417968-5.5625 12.417968-12.421875 0-4.0625-1.988281-7.871094-5.324218-10.191406zm-60.148438-35.738282c-.082031-.460937-.742187-.460937-.824218 0l-11.8125 65.886719c-.714844 4 .570312 8.097656 3.441406 10.972656 4.851562 4.847657 12.714844 4.847657 17.566406 0 2.875-2.875 4.160156-6.972656 3.441406-10.972656zm-7.945312-7.945312-49.109375-8.804688c.628906 6.058594 1.472656 12.054688 2.515625 17.984375l46.59375-8.355469c.460937-.082031.460937-.742187 0-.824218zm0 0" fill="#fd3980"/><path d="m31.738281 255.804688 21.257813 30.546874c.269531.382813-.199219.851563-.585938.585938l-17.792968-12.382812c-1.183594-6.175782-2.148438-12.425782-2.878907-18.75zm21.722657 31.597656c-2.523438 2.523437-2.523438 6.613281 0 9.136718 2.523437 2.523438 6.613281 2.523438 9.136718 0 2.523438-2.523437 2.523438-6.613281 0-9.136718-2.523437-2.523438-6.613281-2.523438-9.136718 0zm4.15625-2.964844c.082031.460938.742187.460938.824218 0l11.8125-65.886719c.71875-4-.570312-8.097656-3.441406-10.972656-4.851562-4.851563-12.714844-4.851563-17.566406 0-2.875 2.875-4.160156 6.972656-3.441406 10.972656zm66.296874-45.929688c0-6.859374-5.558593-12.421874-12.421874-12.421874-4.0625 0-7.871094 1.988281-10.191407 5.324218l-38.238281 54.941406c-.265625.382813.199219.851563.585938.585938l54.941406-38.238281c3.335937-2.320313 5.324218-6.128907 5.324218-10.191407zm7.535157 41.238282-65.886719 11.808594c-.460938.085937-.460938.746093 0 .828124l65.886719 11.8125c4 .714844 8.097656-.570312 10.972656-3.445312 4.851563-4.847656 4.851563-12.714844 0-17.5625-2.875-2.875-6.972656-4.160156-10.972656-3.441406zm-73.007813 19.757812c-.082031-.460937-.742187-.460937-.824218 0l-5.503907 30.703125c5.121094 11.484375 11.066407 22.519531 17.757813 33.035157zm53.050782 58.351563c6.859374 0 12.421874-5.5625 12.421874-12.421875 0-4.066406-1.988281-7.871094-5.324218-10.195313l-54.941406-38.234375c-.382813-.269531-.851563.199219-.585938.585938l38.238281 54.9375c2.320313 3.335937 6.128907 5.328125 10.191407 5.328125zm-60.996094-65.472657c.460937-.082031.460937-.742187 0-.824218l-12.601563-2.261719c.433594 1.710937.890625 3.40625 1.359375 5.101563zm2.5 5.207032c.269531-.386719-.199219-.855469-.585938-.585938l-10.25 7.132813c.65625 2.042969 1.335938 4.074219 2.039063 6.09375zm0 0" fill="#fc5e93"/><path d="m242.292969 496.992188c0 6.859374-5.5625 12.417968-12.421875 12.417968-4.0625 0-7.871094-1.988281-10.191406-5.324218l-38.238282-54.941407c-.269531-.382812.199219-.851562.585938-.582031l54.9375 38.234375c3.339844 2.320313 5.328125 6.128906 5.328125 10.195313zm18.507812-62.246094c-2.875-2.875-6.972656-4.160156-10.976562-3.445313l-65.882813 11.8125c-.460937.082031-.460937.742188 0 .828125l65.882813 11.808594c4.003906.71875 8.101562-.566406 10.976562-3.441406 4.847657-4.851563 4.847657-12.714844 0-17.5625zm-88.960937 4.210937c-2.523438 2.523438-2.523438 6.613281 0 9.136719 2.523437 2.523438 6.613281 2.523438 9.136718 0 2.523438-2.523438 2.523438-6.613281 0-9.136719-2.523437-2.523437-6.613281-2.523437-9.136718 0zm-55.992188-38.699219 54.941406 38.234376c.382813.269531.851563-.199219.582032-.585938l-38.234375-54.9375c-2.324219-3.335938-6.128907-5.324219-10.195313-5.324219-6.859375 0-12.417968 5.558594-12.417968 12.417969 0 4.066406 1.988281 7.871094 5.324218 10.195312zm54.941406 48.304688-42.324218 29.457031c5.4375 3.128907 11.003906 6.066407 16.6875 8.800781l26.222656-37.675781c.265625-.382812-.203125-.851562-.585938-.582031zm-1.914062-5.449219-65.886719-11.8125c-4-.714843-8.097656.570313-10.972656 3.445313-4.851563 4.847656-4.851563 12.714844 0 17.5625 2.875 2.875 6.972656 4.160156 10.972656 3.445312l65.886719-11.8125c.460938-.082031.460938-.746094 0-.828125zm7.117188-7.121093c.085937.460937.746093.460937.828124 0l11.8125-65.882813c.714844-4.003906-.570312-8.101563-3.445312-10.972656-4.847656-4.851563-12.710938-4.851563-17.5625 0-2.875 2.871093-4.160156 6.972656-3.441406 10.972656zm0 15.066406-8.128907 45.363281c5.949219 2.179687 12 4.148437 18.144531 5.890625l-9.1875-51.253906c-.082031-.460938-.742187-.460938-.828124 0zm6.035156-12.566406 54.9375-38.234376c3.335937-2.324218 5.324218-6.128906 5.324218-10.195312 0-6.859375-5.558593-12.421875-12.417968-12.421875-4.066406 0-7.871094 1.992187-10.195313 5.328125l-38.234375 54.9375c-.265625.386719.199219.855469.585938.585938zm0 0" fill="#57bd91"/><path d="m133.136719 382.96875 38.238281 54.9375c.265625.386719-.199219.855469-.585938.585938l-54.941406-38.234376c-3.335937-2.324218-5.324218-6.128906-5.324218-10.195312 0-6.859375 5.5625-12.421875 12.421874-12.421875 4.0625.003906 7.871094 1.992187 10.191407 5.328125zm48.890625 55.523438 54.9375-38.234376c3.335937-2.324218 5.324218-6.128906 5.324218-10.195312 0-6.859375-5.558593-12.421875-12.417968-12.421875-4.066406 0-7.871094 1.992187-10.195313 5.328125l-38.234375 54.9375c-.265625.386719.199219.855469.585938.585938zm-14.402344-79.359376c-2.875 2.875-4.160156 6.972657-3.441406 10.972657l11.808594 65.886719c.082031.460937.746093.460937.828124 0l11.8125-65.886719c.714844-4-.570312-8.097657-3.445312-10.972657-4.847656-4.847656-12.710938-4.847656-17.5625 0zm14.402344 89.429688c-.386719-.269531-.855469.199219-.585938.582031l.625.902344c2.066406.992187 4.152344 1.949219 6.246094 2.890625zm67.796875-17.261719-65.882813 11.8125c-.460937.082031-.460937.742188 0 .828125l65.882813 11.808594c4.003906.71875 8.101562-.566406 10.976562-3.441406 4.847657-4.851563 4.847657-12.714844 0-17.566406-2.875-2.871094-6.972656-4.15625-10.976562-3.441407zm-68.847657 7.65625c-2.523437-2.523437-6.613281-2.523437-9.136718 0-1.335938 1.335938-1.957032 3.109375-1.878906 4.859375 3.265624 1.789063 6.574218 3.5 9.925781 5.152344.386719-.246094.75-.535156 1.089843-.875 2.523438-2.523438 2.523438-6.613281 0-9.136719zm-12.101562 4.15625-.25-.046875c.179688.101563.363281.207032.546875.304688-.050781-.121094-.132813-.230469-.296875-.257813zm0 0" fill="#7ac9a5"/></svg>