<svg viewBox="0 0 512 512" xmlns="http://www.w3.org/2000/svg"><path d="m73.824219 435.835938c-45.640625-46.230469-73.824219-109.738282-73.824219-179.835938 0-141.386719 114.613281-256 256-256s256 114.613281 256 256c0 70.097656-28.183594 133.605469-73.824219 179.835938-58.679687-3.894532-119.632812-5.953126-182.175781-5.953126s-123.496094 2.058594-182.175781 5.953126zm0 0" fill="#813873"/><path d="m270 180h-24v-160h24zm0 0" fill="#ce9047"/><path d="m431 400c0 16.570312-13.429688 30-30 30h-290c-16.570312 0-30-13.429688-30-30s13.429688-30 30-30h290c16.570312 0 30 13.429688 30 30zm0 0" fill="#e27500"/><path d="m407.316406 370.671875c.882813.1875 1.753906.414063 2.605469.675781-.851563-.261718-1.722656-.488281-2.605469-.675781zm11.144532 4.941406c-1.011719-.726562-2.0625-1.394531-3.160157-1.992187 1.097657.597656 2.148438 1.265625 3.160157 1.992187zm1.378906 1.046875c.828125.667969 1.621094 1.375 2.375 2.125-.753906-.75-1.546875-1.457031-2.375-2.125zm-9.917969-5.3125c.9375.292969 1.859375.628906 2.753906 1.011719-.894531-.382813-1.816406-.71875-2.753906-1.011719zm5.378906 2.273438c-.851562-.460938-1.726562-.882813-2.625-1.265625.898438.382812 1.773438.804687 2.625 1.265625zm6.960938 5.214844c.957031.960937 1.851562 1.992187 2.671875 3.078124-.824219-1.085937-1.714844-2.113281-2.671875-3.078124zm8.621093 23.742187c-.066406.734375-.148437 1.464844-.265624 2.1875.117187-.722656.203124-1.453125.265624-2.1875zm-5.703124-20.328125c3.65625 4.96875 5.820312 11.105469 5.820312 17.75 0-6.644531-2.164062-12.78125-5.820312-17.75zm-9.773438 25.601562c-10.273438 0-19.609375-3.988281-26.566406-10.488281-6.957032 6.5-16.292969 10.488281-26.566406 10.488281-10.273438 0-19.613282-3.988281-26.570313-10.488281-6.957031 6.5-16.292969 10.488281-26.566406 10.488281-10.273438 0-19.613281-3.988281-26.570313-10.488281-6.957031 6.5-16.292968 10.488281-26.566406 10.488281s-19.609375-3.988281-26.566406-10.488281c-6.957032 6.5-16.296875 10.488281-26.570313 10.488281-10.273437 0-19.609375-3.988281-26.566406-10.488281-6.957031 6.5-16.292969 10.488281-26.570313 10.488281-10.273437 0-19.609374-3.988281-26.566406-10.488281-3.644531 3.402344-7.945312 6.109375-12.6875 7.925781 2.5 14.042969 14.765625 24.710938 29.527344 24.710938h261c14.945312 0 27.335938-10.933594 29.617188-25.234375-4.671876 1.984375-9.8125 3.085937-15.210938 3.085937zm15.503906-5.652343c.054688-.726563.089844-1.460938.089844-2.199219 0 .738281-.035156 1.472656-.089844 2.199219zm0 0" fill="#f57e00"/><path d="m441.644531 348.925781c0 20.121094-16.3125 36.433594-36.433593 36.433594-9.617188 0-18.359376-3.730469-24.871094-9.816406-6.511719 6.085937-15.25 9.816406-24.867188 9.816406-9.617187 0-18.355468-3.730469-24.867187-9.816406-6.511719 6.085937-15.253907 9.816406-24.867188 9.816406-9.617187 0-18.359375-3.730469-24.871093-9.816406-6.511719 6.085937-15.25 9.816406-24.867188 9.816406-9.613281 0-18.355469-3.730469-24.867188-9.816406-6.511718 6.085937-15.25 9.816406-24.867187 9.816406s-18.359375-3.730469-24.867187-9.816406c-6.511719 6.085937-15.253907 9.816406-24.871094 9.816406-9.613282 0-18.355469-3.730469-24.867188-9.816406-6.511718 6.085937-15.25 9.816406-24.867187 9.816406-20.121094 0-36.433594-16.3125-36.433594-36.433594 0-20.125 16.3125-36.4375 36.433594-36.4375 9.617187 0 18.355469 3.734375 24.867187 9.820313 6.511719-6.085938 15.253906-9.820313 24.867188-9.820313 9.617187 0 18.359375 3.734375 24.871094 9.820313 6.511718-6.085938 15.25-9.820313 24.867187-9.820313s18.355469 3.734375 24.867187 9.820313c6.511719-6.085938 15.253907-9.820313 24.867188-9.820313 9.617188 0 18.359375 3.734375 24.867188 9.820313 6.511718-6.085938 15.253906-9.820313 24.871093-9.820313 9.613281 0 18.355469 3.734375 24.867188 9.820313 6.511719-6.085938 15.25-9.820313 24.867187-9.820313 9.617188 0 18.355469 3.734375 24.867188 9.820313 6.511718-6.085938 15.253906-9.820313 24.871094-9.820313 20.121093 0 36.433593 16.316407 36.433593 36.4375zm0 0" fill="#22b27f"/><path d="m122.230469 381.925781c-4.6875 2.199219-9.917969 3.433594-15.441407 3.433594-20.121093 0-36.433593-16.3125-36.433593-36.433594 0-20.125 16.3125-36.4375 36.433593-36.4375 5.523438 0 10.753907 1.238281 15.441407 3.4375-12.394531 5.8125-20.984375 18.398438-20.984375 33 0 14.597657 8.589844 27.183594 20.984375 33zm0 0" fill="#028f5d"/><path d="m431 300c0 16.570312-13.429688 30-30 30h-290c-16.570312 0-30-13.429688-30-30s13.429688-30 30-30h290c16.570312 0 30 13.429688 30 30zm0 0" fill="#d6bf01"/><path d="m431 300c0 16.570312-13.429688 30-30 30h-267.332031c-16.570313 0-30-13.429688-30-30s13.429687-30 30-30h267.332031c16.570312 0 30 13.429688 30 30zm0 0" fill="#fded32"/><path d="m450 320v10c0 5.523438-4.476562 10-10 10h-370c-5.523438 0-10-4.476562-10-10v-10c0-5.523438 4.476562-10 10-10h370c5.523438 0 10 4.476562 10 10zm0 0" fill="#d00041"/><path d="m163.332031 340h-73.332031c-5.523438 0-10-4.476562-10-10v-10c0-5.523438 4.476562-10 10-10h73.332031c-5.523437 0-10 4.476562-10 10v10c0 5.523438 4.480469 10 10 10zm276.667969-30h-160c-5.523438 0-10 4.476562-10 10v10c0 5.523438 4.476562 10 10 10h160c5.523438 0 10-4.476562 10-10v-10c0-5.523438-4.476562-10-10-10zm-190 20v-10c0-5.523438 4.476562-10 10-10h-76.667969c-5.523437 0-10 4.476562-10 10v10c0 5.523438 4.476563 10 10 10h76.667969c-5.523438 0-10-4.476562-10-10zm0 0" fill="#fd0464"/><path d="m451 245c0 24.851562-20.148438 45-45 45h-300c-24.851562 0-45-20.148438-45-45 0-55.230469 44.769531-100 100-100h190c55.230469 0 100 44.769531 100 100zm-345 177c-12.683594 0-24.132812 5.253906-32.3125 13.695312 46.425781 47.097657 110.953125 76.304688 182.3125 76.304688s135.886719-29.207031 182.3125-76.304688c-8.179688-8.441406-19.628906-13.695312-32.3125-13.695312zm0 0" fill="#f8bb5e"/><path d="m145 290h-39c-24.851562 0-45-20.148438-45-45 0-55.230469 44.769531-100 100-100h39c-55.230469 0-100 44.769531-100 100 0 24.851562 20.148438 45 45 45zm-71.3125 145.695312c8.414062 8.535157 17.417969 16.476563 26.953125 23.769532 3.585937-21.265625 22.078125-37.464844 44.359375-37.464844h-39c-12.683594 0-24.132812 5.253906-32.3125 13.695312zm0 0" fill="#ebae56"/><path d="m397.277344 110h-151.277344v-110h151.277344c3.445312 0 5.859375 3.40625 4.714844 6.65625l-14.660157 41.710938c-1.507812 4.292968-1.507812 8.972656 0 13.265624l14.660157 41.707032c1.144531 3.253906-1.269532 6.660156-4.714844 6.660156zm0 0" fill="#01bff9"/><path d="m285.097656 52.183594c1.34375-19.625 17.136719-35.550782 36.75-37.0625 7.171875-.550782 13.976563.800781 19.980469 3.59375 1.402344.652344 1.605469 2.570312.335937 3.457031-10.375 7.222656-17.164062 19.230469-17.164062 32.828125s6.789062 25.601562 17.160156 32.828125c1.261719.878906 1.082032 2.800781-.308594 3.449219-5.121093 2.386718-10.828124 3.722656-16.851562 3.722656-23.023438 0-41.503906-19.449219-39.902344-42.816406zm-5.097656 255.390625 49.496094 49.496093c3.90625 3.90625 10.238281 3.90625 14.144531 0l49.496094-49.496093zm0 0" fill="#fded32"/><path d="m185.964844 193.6875c6.25 6.246094 6.25 16.378906 0 22.625-1.5625 1.5625-4.09375 1.5625-5.65625 0-6.25-6.246094-6.25-16.378906 0-22.625 1.5625-1.5625 4.09375-1.5625 5.65625 0zm150.972656-24c-6.25-6.25-16.378906-6.25-22.628906 0-1.5625 1.558594-1.5625 4.09375 0 5.65625 6.25 6.246094 16.378906 6.246094 22.628906 0 1.558594-1.5625 1.558594-4.097656 0-5.65625zm-59.800781 25.3125c-2.207031 0-4 1.789062-4 4 0 8.835938 7.164062 16 16 16 2.210937 0 4-1.789062 4-4 0-8.835938-7.164063-16-16-16zm-48-30c-8.835938 0-16 7.164062-16 16 0 2.210938 1.792969 4 4 4 8.835937 0 16-7.164062 16-16 0-2.210938-1.789063-4-4-4zm-80 0c-8.835938 0-16 7.164062-16 16 0 2.210938 1.792969 4 4 4 8.835937 0 16-7.164062 16-16 0-2.210938-1.789063-4-4-4zm240 30c-8.835938 0-16 7.164062-16 16 0 2.210938 1.792969 4 4 4 8.835937 0 16-7.164062 16-16 0-2.210938-1.789063-4-4-4zm0 0" fill="#fff2b4"/></svg>